<svg xmlns="http://www.w3.org/2000/svg" viewBox="0 0 256 256">
  <rect width="256" height="256" fill="#1a1a2e"/>
  <path d="M40 200 L40 180 L60 160 L80 170 L100 140 L120 150 L140 110 L160 120 L180 80 L200 90 L220 50" stroke="#10b981" stroke-width="8" fill="none" stroke-linecap="round" stroke-linejoin="round"/>
  <circle cx="40" cy="180" r="6" fill="#10b981"/>
  <circle cx="60" cy="160" r="6" fill="#10b981"/>
  <circle cx="80" cy="170" r="6" fill="#10b981"/>
  <circle cx="100" cy="140" r="6" fill="#10b981"/>
  <circle cx="120" cy="150" r="6" fill="#10b981"/>
  <circle cx="140" cy="110" r="6" fill="#10b981"/>
  <circle cx="160" cy="120" r="6" fill="#10b981"/>
  <circle cx="180" cy="80" r="6" fill="#10b981"/>
  <circle cx="200" cy="90" r="6" fill="#10b981"/>
  <circle cx="220" cy="50" r="6" fill="#10b981"/>
  <path d="M200 40 L220 50 L210 70" fill="#3b82f6" stroke="#3b82f6" stroke-width="4" stroke-linejoin="round"/>
</svg>